<?xml version="1.0" encoding="UTF-8"?>
<!DOCTYPE svg PUBLIC "-//W3C//DTD SVG 1.1//EN" "http://www.w3.org/Graphics/SVG/1.1/DTD/svg11.dtd">
<!-- Creator: CorelDRAW 2018 (64 Bit Versión de evaluación) -->
<svg xmlns="http://www.w3.org/2000/svg" xml:space="preserve" width="166.387mm" height="248.973mm" version="1.1" style="shape-rendering:geometricPrecision; text-rendering:geometricPrecision; image-rendering:optimizeQuality; fill-rule:evenodd; clip-rule:evenodd"
viewBox="0 0 3177.28 4754.33"
 xmlns:xlink="http://www.w3.org/1999/xlink">
 <defs>
  <style type="text/css">
   <![CDATA[
    .fil0 {fill:#FEFEFE}
   ]]>
  </style>
 </defs>
 <g id="Capa_x0020_1">
  <metadata id="CorelCorpID_0Corel-Layer"/>
  <g>
   <path class="fil0" d="M3176.81 3129.98c3.77,-401.57 -249.69,-863.87 -760.39,-1386.89 -389.08,-429.34 -667.8,-1010.37 -836.18,-1743.09 -166.6,732.72 -442.4,1313.74 -827.38,1743.09 -505.33,523.02 -756.13,985.32 -752.39,1386.89 -10.51,486.55 157.8,889.06 504.94,1207.53 306.22,272.16 668.69,411.1 1077.37,416.82 413.02,-5.72 774.27,-144.67 1083.74,-416.82 350.82,-318.47 520.92,-720.98 510.3,-1207.53zm-2030.62 -382.31l-0.52 1.78c-11.68,6.78 -30.73,27.4 -37.51,36.01 -3.28,-0.7 -2.4,-1.31 -2.4,2.13 -3.08,3.96 -6.24,8.31 -9.61,12.01 -5.92,6.51 -5.04,4.17 -8.88,13.06 -6.65,2.34 -3.56,2.87 -7.94,8.81 -6.76,-3.19 -3.54,-2 -8.54,-5.73 -32.07,-23.94 -79.26,-56.83 -109.85,-81.6l-40.59 -29.88c-5.13,-3.68 -9.77,-7.56 -14.93,-11.35 -6.78,-4.99 -9.96,-8.18 -14.58,-14.07 -20.64,-26.33 5.27,-60.47 24.61,-75.07 19.71,5.96 24.55,13.38 52.39,8.02 18.09,-3.48 31.07,-13.84 38.26,-25.42 20.58,-33.13 14.55,-69.61 -9.61,-90.15 -52.9,-44.95 -148.05,16.41 -94.25,96.37 -8.83,9.91 -19.29,21.6 -26.34,33.13 -8.13,13.3 -10.63,30.5 -5.99,47.57 5.88,21.6 41.73,45.74 60.48,58.38l137.09 103.02c-2.16,6.65 -27.24,39.65 -32.12,52.32 -2.43,1.22 -1.01,-1.33 -3.01,2.68 -1.35,2.72 -1.05,2.17 -2.14,6.62 -9.69,14.81 -33.14,59.46 -36.93,77.66 -14,-2.29 -42.98,-15.27 -57.64,-20.82l-57.46 -21.71c10.41,-36.06 57.83,-83.87 -9.66,-124.66 -6.97,-4.21 -12.75,-6.48 -20.2,-10.67l-184.48 -99.87c5.21,-12.63 43.74,-64.76 52.39,-84.69 19.73,4.62 29.21,11.17 51.95,3.38 57.92,-19.84 56.6,-90.87 19.18,-116.51 -31.46,-21.56 -71.39,-13.33 -91.46,11.16 -24.11,29.42 -15.77,72.71 7.97,91.39 -3.31,12.07 -50.51,74.64 -64.53,107.27 -5.77,13.42 -12.46,28.62 -17.55,41.92 -10.01,26.17 -49.71,101.73 -44.89,128.14 3.47,18.97 13.95,28.29 21.82,37.85 -6.68,42.46 9.3,67.32 40.44,80.39 33.89,14.22 73.85,-8.03 84.32,-34.73 22.99,-58.63 -30.06,-106.9 -81.33,-90.17 -10.41,3.39 -21.25,10.93 -28.16,18.12 -2.53,2.63 -1.19,1.76 -4.19,4.63l-5.57 4.56c-21.86,-29.5 -8.6,-48.37 12.32,-94.67 14.71,-32.55 26.05,-63.28 39.68,-94.64l172.11 93.37c70.56,36.15 73.12,42.69 36.44,117.49 -7.71,15.73 -12.4,32.04 -17.96,50.09 -86.12,-9.71 -105.69,104.54 -29.11,129.25 29.07,9.38 67.32,-4.73 80.29,-40.52 18.52,-51.12 -21.76,-73.9 -34.64,-85.94l7.7 -26.54c12.62,2.33 43.11,14.96 56.82,20.76l57.51 21.72 -20.71 72.98c-6.17,23.16 -11.13,56.2 -13.18,81.37 -10.69,1.93 -115.15,-8.44 -135.08,-9.97 -8.17,-1.21 -17.6,-3.61 -26.04,-1.18l-3.22 1.58c-17.31,0.62 -30.39,12.23 -37.42,23.61 -13.52,21.87 -8.08,24.43 -10.58,50.55l-0.21 3.05c-5.45,19.87 -14.58,28.88 -33.42,35.4 -5.54,-0.54 -6.95,-0.96 -12.65,-0.48 -6.33,0.53 -5.24,0.64 -8.97,2.42l-75.96 3.85c-2.74,-66.97 21.55,-131.96 -60.07,-141.04 -21.36,-2.38 -121.41,-7.06 -135.7,-13.45 -9.61,-4.29 -21.64,-15.44 -24.3,-26.15 -10.13,-40.85 42.58,-123.32 -28.25,-150.28 -23.41,-8.92 -58.75,-9.4 -79.85,-21.21 -35.08,-19.66 -11.43,-59.37 -12.03,-72.07 1.6,-2.05 1.23,-0.94 2.82,-4.5l6.35 -18.11c2.53,-7.31 5.55,-16.33 6.99,-23.31 2.76,-20.71 17.8,-38.21 39.17,-39.96 17.56,-0.7 64,20.12 80.42,26.57 14.19,2.96 28.44,3.08 40.3,-3.14 10.95,-5.74 20.66,-13.58 23.99,-23.77 3.8,0 2.68,0.73 1.68,-3.4 4.64,-2.74 0.51,4.02 5.16,-5.73 1.73,-3.64 2.02,-5.72 3.19,-9.11 8.62,-12.39 22.18,-52.35 30.43,-61.89 22.19,3.39 31.97,4.68 51.07,-5.08 9.9,-5.06 25.95,-21.67 30.27,-33.61 13.02,-36.06 -4.26,-71.78 -31.66,-84.76 -52.11,-24.68 -110.73,24.49 -93.65,78.28 6.31,19.89 16.17,25.59 27.39,37.46 -4.59,18.92 -21.52,41.28 -25.19,58.7l-8.19 18.32c-3.66,3.1 -5.21,6.05 -8.77,9.53 -2.84,2.78 -6.48,6.56 -10.58,9.17 -12.18,7.74 -20.72,4.16 -33.88,3.77 0,-3.79 0.65,-2.45 -3.78,-1.38 -4.6,-5.34 -60.49,-24.82 -71.04,-25.27 -18.01,-0.02 -23.34,1.12 -36.43,9.78 -8.57,5.67 -6.46,2.45 -12.69,11.53 -4.46,6.5 -7.37,8.45 -7.38,16.34 -5.05,5.06 -5.85,12.52 -7.57,20.07l-4.81 14.01c-8.12,26.43 -25.01,64.98 -11.34,91.59 24.91,48.52 89.26,30.52 117.13,54.54 9.91,8.54 16.62,21.52 14.15,40.17 -5.72,43.23 -30.49,104.69 24.8,127.86 14.67,6.15 33.15,5.23 49.46,7.21 52.39,6.34 123.73,-5.74 135.1,36.87 5.48,20.53 -2.6,82.95 1.77,112.84 2.47,16.88 5.51,37.03 6.59,53.44l-10.83 5.07c-65.43,33.79 -41.08,133.58 36.42,126.58 32.4,-2.93 60.47,-33.22 58.22,-70.1 -1.12,-18.37 -11.15,-36.48 -19.94,-44.46 -16.24,-14.76 -22.35,-12.77 -47.8,-18.32l-6.34 -54.04 76.58 -4.33c7.22,0.76 20.17,2.18 23.98,-3.33 20.84,-0.44 44.83,-24.99 44.41,-48.59 2.96,-1.02 2.9,-25.82 3.54,-31.31 2.26,-12.58 5.74,-15.41 14.46,-22.92 9.16,-7.9 13.27,-8.63 27.08,-8.95l151 12.24c-1.59,38.81 -2.39,80.86 3.27,120.3 1.68,11.74 4.65,24.98 4.81,37.76 -11.3,5.55 -114.72,24.03 -135.4,27.99 -24.63,4.71 -40.45,13.08 -50.13,31.49 -21.11,40.17 18.53,61.77 -8.66,96.94 -10.79,13.96 -125.59,48.36 -149.57,57.3l-62.06 21.62c-23.47,5.44 -43.9,-10.58 -49.15,-27.39 -9.52,-30.45 -9.87,-57.49 -25.33,-77.68 -3.16,-4.13 -4.61,-6.03 -10.11,-10.32 -29.4,-22.9 -61.12,-8.61 -101.93,-0.7 -22.19,4.3 -46,8.33 -68.05,13.25 -28.71,6.4 -46.69,3.78 -58.81,-17.07 -9.28,-15.97 -10.43,-48.55 -12.46,-69.18 -2.48,-25.15 -7.29,-49.81 -9.75,-75.24l113.43 -6.28c18.27,82.56 134.1,65.29 131.35,-15.37 -2.68,-78.89 -121.67,-89.2 -132.17,-0.79l-113.44 6.82c1.21,-36.42 -0.67,-102.84 1.24,-133.84 0.84,-13.67 2.39,-6.46 23.99,-16.23 59.4,-26.88 43.66,-123.8 -27.51,-125.65 -73.53,-1.91 -90.33,94.86 -36.24,123.34 7.8,4.11 16.61,5.85 23.74,9.93 3.04,49.12 -4.77,105.91 -0.94,154.13l17.18 136.56c3.7,21.56 17.69,36.56 33.84,43.74 20.13,8.95 44.81,2.18 65.7,-2.18l97.19 -19.46c16.2,-2.58 21.88,-0.33 34.27,-0.71l10.9 7.42c7.79,9.93 11.66,11.84 14.86,27.55 2.34,11.51 6.3,26.23 9.06,35.11 8.85,28.53 10.06,37.41 34.3,51.34 33.47,19.24 83.16,-15.9 132.7,-27.22 10.49,41.53 53.91,92.49 23.06,121.62 -8.59,8.11 -39.92,23.08 -53.85,29.71 -18.42,8.77 -36.86,19.98 -54.97,28.68 -31.13,14.94 -93.85,54.43 -117.44,49.94 -25.22,-4.79 -28.77,-22.69 -39.16,-44.66l-24.95 -58.94c9.45,-9.21 35.53,-20.79 34.87,-61.56l-3.52 -20.15c-2.02,-5.03 0.98,-0.93 -2.56,-4.15 -2.27,-5.43 -2.64,-6.43 -5.88,-11.78 -5.05,-8.35 -0.82,-3.09 -7.52,-8.97 -5.34,-4.69 -11.53,-10.21 -21.54,-14.94l-22.37 -4.9c-20.56,0.91 -35.12,5.9 -46.4,16.12 -7.89,7.15 -22.75,23.72 -21.08,39.28l-3.24 11.62c-0.1,9.24 1.62,9.3 3.33,11.22 -1.6,17.28 17.52,39.16 30.55,46.05 0.81,0.43 4.82,2.19 5.68,2.57 16.19,7.08 26.23,8.06 43.92,4.56 9.14,20.69 17.72,41.75 27.23,62.95 11.05,24.62 16.05,41.43 42.72,49.78 29.61,9.27 48.49,-6.02 68.87,-16.76l62.03 -30.45c4.51,5.49 15.14,22.36 19.15,29.18l27.27 45.38c4.41,6.29 5.19,8.97 8.78,15.48 5.91,10.75 14.27,20.39 18.61,30.95 -0.46,0.41 -1.18,0.39 -1.41,1.2l-153.84 109.41c-12.19,-6.62 -6.65,-8.26 -17.91,-13.47 -27.26,-12.63 -51.53,-9.69 -74.42,6.46 -34.98,24.68 -35.02,97.52 24.68,115.88 31.8,9.78 68.66,-9.04 80.18,-41.93 7.91,-22.59 1.54,-35.55 -3.82,-54.39l135.75 -95.35c5.44,-4.26 14.09,-10.22 20.6,-13.25 34.23,31.08 56.55,88.55 99.33,95.04 41.38,6.28 75.22,-49.28 114.17,-77.75l89.84 76.39c15.58,12.33 35.17,37.65 70.22,27.69 27.63,-7.85 47.92,-46.17 64.95,-69.41 4.89,-6.68 8.64,-12.18 13.16,-19.96 3.47,-5.98 10.58,-14.83 14.61,-20.59 6.4,-9.15 22.67,-35.03 28.96,-38.9 10.71,5.31 42.96,23.41 49.48,30.52 -23.19,78.93 81.15,121.33 121.66,52.26 15.43,-26.31 8.73,-68.13 -25.18,-88.12 -13.89,-8.19 -32.18,-12.64 -50.58,-7.49 -19.55,5.47 -29.54,14.61 -38.15,26.44 -8.3,-3.07 -16.75,-8.34 -24.52,-13.57 -9.49,-6.39 -15.03,-5.78 -23.5,-15.74 13.65,-16.77 57.68,-86.85 70.03,-99.87 8.29,3.67 55.93,34.67 85.36,47.56 30.37,13.3 62.78,27.73 97.25,35.17 0.28,13.15 -37.9,146.46 -42.14,166.53l-44.37 164.64c-8.72,-4.64 -24.69,-9.69 -35.66,-13.47 -12.67,-4.36 -23.77,-10.19 -36.47,-14.22 -10.38,-3.29 -67.26,-24.84 -72.32,-28.83 5.81,-27.13 -0.72,-50.24 -20.12,-68.03 -4.41,-4.04 -14.3,-9.56 -21.03,-11.96 -79.9,-28.52 -125.03,85.58 -53.24,121.56 17.19,8.62 34.07,9.06 53.19,3.17 15.13,-4.66 30.15,-17 34.34,-29.17 47.51,18.59 100.04,38.83 147.99,56.39 -5.01,23.39 -12.72,48.52 -18.92,72.43 -3.9,15.05 -18.51,62.85 -18.04,73.65 -3.53,3.89 -1.36,-1.1 -3.43,6.34 -0.23,0.83 -0.45,4.19 -0.79,5.88 -1.17,5.77 -2.19,6.61 -4.09,11.71l-9.45 37.59 -14.13 -3.41c-8.94,-4.14 -24.57,-7.36 -32.73,-11.95l-11.27 -1.39c-4.65,-6.91 7.8,3.2 -3.55,-3.34l-31.39 -10.32c-34.86,-18.19 -70.44,-8.29 -88.69,31.97 -15.62,34.44 -22.53,74.33 -56.66,77.85 -18.53,1.91 -71.16,-29.89 -94.02,-40.43 -10.97,-5.06 -17.91,-10.83 -22.75,-21.29 -15.19,-32.79 27.62,-78.75 49.34,-120.44 8.87,-17.02 26.69,-37.38 30.34,-58 4.12,-7.12 3.99,-17.28 -0.65,-23.85 -0.72,-9.95 -6.16,-18.04 -10.8,-24.34 -7.52,-10.23 -45.33,-34.33 -58.41,-42.89 -26.63,-17.45 -46.05,-23.41 -76.51,-2.18 -9.61,6.7 -29.9,36.68 -39.09,46.76 -10.72,11.75 -28.13,34.85 -57.69,18.57l-72.31 -64.46c6.12,-20.09 15.31,-23.34 10.85,-52.73 -5,-32.99 -34.65,-56.99 -71.76,-54.33 -20.18,1.45 -30.73,10.77 -40.52,20.54 -11,10.98 -18.74,23.23 -18.94,44.71 -0.53,54.82 57.91,86.02 107.63,53.58 18.22,12.16 56.08,53.88 73.56,64.46 14.22,8.6 35.86,12.73 53.35,4.55 46.46,-21.73 57.63,-106.95 119.14,-69.35 7.18,4.39 13.01,10.43 19.87,15.31 33.06,23.54 41.69,20.57 48.26,52.02l-1.94 10.97c-1.28,11.76 -37.62,68.67 -49.75,89.16 -19.63,33.18 -45.86,63.25 -28.18,99.6 10.36,21.29 27.85,27.03 51.43,38.87 36.53,18.34 70.14,42.87 102.81,24.96 43.2,-23.69 34.58,-93.46 73.75,-108.8 16.83,-6.6 23.55,0.99 38.41,0.77 4.34,5.36 -3.36,0.9 8.44,4.82 6.37,2.12 4.19,1.41 10.27,2.78l6.87 1.59c7.35,5.04 32.27,12.73 38.42,14.22 32.25,15.84 71.04,18.82 108.08,27.02 31.59,7 87.4,4.25 89.5,49.73 0.75,16.23 -5.6,73.76 -15.67,88.58 -2.77,4.08 -13.75,12.3 -20.66,14.55 -21.47,6.99 -89.57,-14.13 -117.13,-16.45 3.79,-91.24 -112.3,-96.44 -130.26,-24.19 -15.99,64.34 50.96,98.82 97.66,73.58 16.73,-9.04 19.85,-16.31 29.32,-33.91 30.6,3.61 87.53,20.97 115.47,17.98 47.54,-5.09 49.22,-47.15 53.39,-84.82 2.87,-25.86 8.28,-59.31 -15.45,-76.69 -6.8,-4.98 -14.68,-10.2 -23.17,-12.06 -37.87,-8.31 -77.29,-14.11 -116.15,-22.42l144.97 -553.2 84.31 13.69c37.46,5.6 30.51,-5.85 28.49,44.01 -0.57,14.17 -2.47,33.73 -1.06,47.33 2.55,24.57 23.53,45.74 48.11,48.33 15.54,1.63 29.31,1.1 40.6,8.16 8.69,5.44 16.11,16.02 17.81,30.67 3.14,27.07 7.99,62.7 8.26,89.17 -27.16,-0.57 -137.48,-4.47 -155.66,1.39 -19.74,6.36 -32.28,23.12 -36.61,42.53 -4.84,21.71 -4.4,50.52 -9.77,71.72 -114.32,9.1 -64.01,180.55 41.6,118.56 38.5,-22.6 33.15,-104.13 -24.23,-116.19 -0.93,-13.77 3.6,-38.98 5.43,-54.15 2.82,-23.38 6.66,-33.81 21.03,-43.1 26.42,-17.06 141.24,-0.09 184.09,-7.01 93.93,-15.17 99.41,-24.24 118.97,50.11 4.58,17.44 8.54,36.03 -0.77,50.22 -2.86,4.35 -11.48,11.21 -16.67,14.01 -15.31,8.27 -64.19,10.03 -83.65,13.17 -66.87,10.78 -102.41,1 -100.74,92.08 0.75,40.7 3.49,84.87 2.7,124.8 -86.09,16.45 -69.09,136.61 11.69,132.53 33.25,-1.68 62.92,-29.74 63.81,-63.57 1.12,-42.51 -22.35,-58.57 -59.93,-69.94 -2.07,-28.74 -1.41,-61.62 -1.79,-90.81 -0.31,-23.71 -6.33,-69.02 6.95,-85.63 16.31,-20.39 38.66,-17.71 70.2,-21.89 30.69,-4.07 90.28,-5.36 112.23,-26.79 5.86,-5.72 14.6,-18.31 16.62,-29.47 3.66,-20.14 -8.86,-57.02 -14.07,-76.35 -5.32,-19.75 -27.5,-39.72 -53.05,-40.31 -21.57,-0.49 -58.59,10.24 -82.32,12.9 -1.47,-28.5 -5.56,-58.26 -8.26,-86.73 -2.71,-28.44 -18.05,-46.11 -41.53,-52.89 -24.99,-7.22 -54.51,4.2 -63.85,-30.8 -4.15,-15.55 0.69,-71.06 1.06,-91.5 16.78,-3.83 60.07,-0.77 82.44,-3.41 25.97,-3.06 51.16,-7.7 77.12,-11.74 0.75,5.33 1.25,8.81 2.72,13.83l10.14 40.48c8.57,32.46 17.03,67.92 66.26,64.65 19.22,-1.27 34.85,-13.25 50.79,-15.81 3.51,4.12 2.82,5.18 5.42,9.03 3.27,4.84 3.99,4.26 7.46,7.96 28.8,30.67 83.74,24.71 104.87,-12.49 27.89,-49.07 -16.94,-112.93 -73.59,-97.72 -16.83,4.52 -31.64,14.89 -38.12,25.75 -11.17,18.72 -11.38,28.61 -11.63,53.4 -29.8,5.64 -64.4,31.11 -85.43,-3.62 -6.35,-10.5 -23.03,-78.15 -22.92,-90.47 42.45,-8.88 85.26,-24.47 121.76,-43.43 7.93,-4.12 13.96,-7.28 21.8,-11.21 12.6,-6.32 32.25,-21.27 43.87,-24.22 6.27,14.43 14.75,26.42 24.54,39.55 3.43,4.59 2.69,4.59 5.76,9.82l45.6 68.73c12.6,21.92 44.19,58.93 48.89,80.88 7.44,34.73 -20.59,42.64 -39.08,53.84 -10.17,6.16 -60.44,33.93 -65.82,31.46 -4.61,-4.63 -3.29,-5.12 -6.48,-8.98 -2.4,-2.89 -5.28,-4.65 -8.54,-7.03 -20.77,-15.13 -49.81,-16.53 -72.09,-5.47 -40.31,20.01 -43.36,71.52 -16.95,103.42 36.95,44.62 128.1,17.82 112.75,-65.3 18.32,-11.28 38.6,-19.78 58.83,-31 27.46,-15.22 37.2,-12.61 49.67,-40.57 20.39,-45.7 -31.25,-85.4 -49.09,-122.51l28.57 -23.47c34.74,-28.7 69.81,-70.36 104.09,-46.16 9.8,6.92 11.42,11.23 19.31,18.2 7.43,6.56 11.95,11.29 19.26,18.15 4.85,4.56 11.45,12.49 16.66,18.54 6.75,7.84 11.69,11.14 18.75,18.65 15.62,16.58 64.26,60.12 74.09,73.34 28.39,38.2 -20.6,67.61 -46.05,87.82l-41.4 33.42c-39.32,30.83 -44.56,58.02 -17.97,98.71l14.38 21.01c5.59,8.12 9.64,14.02 13.79,23.28 18.7,41.69 -33.06,61.24 -64.72,77.7 -15.16,7.89 -31.76,19.82 -46.3,26.53 -3.79,-4.57 -28.16,-55.93 -30.06,-63.48 13.58,-7.11 21.61,-16.81 27.68,-36.03 5.51,-17.45 2.73,-39.59 -6.78,-53.94 -17.94,-27.06 -56.59,-40.4 -86.98,-24.38 -64.45,33.98 -39.27,140.87 50.8,122.57 4.39,6.51 27.7,54.42 29.49,62.97l-22.37 8.93c-5.49,1.27 -4.6,0.46 -10.13,2.94 -7.69,3.44 -3.43,1.99 -5.81,3.82l-69.35 25.68c-19.7,8.19 -31.29,25.29 -34.16,46.57 -1.09,8.09 -1.3,12.24 1.23,19.37l2.02 3.23c0.05,8.4 8.62,33.8 11.58,42.51 8.15,24 6.62,19.38 6.43,44.88 -2.24,2.03 -1.53,1.06 -3.71,3.85 -0.4,0.51 -1.42,2.1 -1.78,2.66 -2.28,3.55 -2.22,3.74 -3.97,7.65 -2.91,1.37 -0.8,0.26 -3.8,2.23 -0.5,0.33 -2,1.45 -2.53,1.81 -17.24,11.68 -101.27,28.33 -112.38,27.35 -20.26,-1.77 -33.18,-17.59 -36.58,-37.62 -3.73,-21.98 -8.5,-43.64 -10.43,-65.99 18.45,-3.61 28.91,-14.74 38.01,-27.52 9.48,-13.32 12.21,-31.04 8.75,-50.78 -8,-45.59 -76.1,-76.27 -117.41,-24.83 -9.41,11.72 -16.27,29.17 -13.49,47.79 6.15,41.15 31.1,53.49 68.28,59.46 2.67,19.71 7.53,60.08 13.36,76.82 20.42,58.61 81.28,35.54 124.6,24.07 24.58,-6.51 26.17,-1.6 49.07,-17.09 10.42,-7.05 8.44,-7.38 10.16,-12.22 2.78,-1.78 1.7,-0.19 3.95,-3.39l6.48 -20.73c2.41,-26.64 -9.76,-44.09 -14.96,-67.77l-2.03 -3.43c-1.24,-19.53 -12.29,-27.54 2.22,-49.46 2.5,-3.77 11.17,-11.49 16.34,-14.28 9.66,-5.21 13.69,-3.39 20.08,-9.12 7.57,-0.45 31.06,-10.97 43.47,-15.41 2.36,-0.85 5.77,-1.77 8.13,-2.81 3.49,-1.54 1.53,-0.01 3.97,-2.82 4.25,-0.93 7.11,-1.47 10.66,-3.07 7.05,-3.16 3.36,-1.65 6.17,-4.49 15.5,0.27 133.47,-65.44 142.36,-77.55 7.96,-10.83 14.41,-23.58 13.14,-42.63 -2.64,-39.43 -64.45,-76.3 -43.53,-115.43 9.91,-18.53 41.07,-38.53 57.79,-52.21 10.81,-8.85 21,-15.73 30.71,-24.39 9.71,-8.66 23.02,-17.59 28.04,-26.96 17.81,-33.21 8.8,-57.18 -12.29,-77.83 -18.6,-18.22 -36.76,-38.61 -56.83,-54.87 2.84,-9.18 28.97,-37.41 36.61,-45.04 12.25,-12.24 26.3,-33.68 55.34,-23.3 18.13,6.48 53.59,38.3 72.19,51.16 23.7,16.38 46.22,37.41 70.21,53 14.17,9.2 36.68,24.87 44.81,38.94 13.29,22.99 -1.9,40.59 -15.93,56.12l-78.83 86.22c-12.72,14.97 -29.55,24.47 -30.34,53.21 -0.34,12.24 1.79,23.61 7.53,31.93 6.17,8.95 11.87,16.95 18.05,23.88 33.65,37.74 62.54,61.95 11.29,100.03 -32.13,23.87 -66.01,43.98 -97.02,68.11 -10.62,8.27 -37.2,29.31 -50.04,34.27 -38.35,-36.05 -101.58,-25.57 -114.27,30.5 -12.82,56.56 49.24,99.24 98.41,71.91 29.55,-16.42 39.66,-46.78 26.04,-87.66 5.92,-7.14 16.39,-12.14 24.35,-18.24 32.89,-25.25 67.95,-45.68 100.84,-70.8 8.62,-6.58 15.96,-12.12 25.55,-18.53 28.37,-18.96 42.72,-56.81 15.63,-88.72l-39.76 -46.17c-27.93,-34.36 2.3,-58 24.23,-82.95l42.49 -45.55c28.32,-29.95 72.03,-65.61 42.53,-110.59 -9.88,-15.06 -21.63,-18.7 -34.47,-29.41l-111.44 -84.42c-4.5,-3.07 -7.12,-6.35 -12.3,-9.66 -27.45,-17.55 -61.14,-49.99 -102.15,0.92 -12.99,16.13 -28.43,29.76 -39.78,47.33 -12.32,-4.63 -39,-35.41 -49.65,-46.01 -15.53,-15.45 -27.68,-36.13 -63.63,-33.61 -21.73,1.53 -31.03,14.44 -45.45,25.21 -6.24,4.66 -8.98,6.56 -13.82,10.45 -11.14,8.98 -44.35,33.72 -52.2,42.67 -6.03,-5.92 -63.89,-94.67 -66.73,-102.88 13.87,-9.13 27.73,-18.84 40.8,-29.05 26.33,-20.58 49.93,-44.18 72.87,-67.88 8.36,-8.64 24.9,-28.4 30.62,-39.64 12.44,3.2 60.35,42.27 75.37,53.38 -5.59,19.72 -12.62,25.23 -5.79,50.37 14.49,53.34 85.56,66.35 117.04,23.22 22.21,-30.44 13.39,-71.62 -9.21,-91.29 -4.44,-3.87 -12.31,-8.22 -19.78,-11.03 -40.36,-15.19 -60.9,9.66 -73.01,15.61 -12.23,-9.37 -64.66,-45.4 -71.46,-54.89 29.24,-41.83 54.63,-90.15 75.31,-138.6 40.39,13.25 85.1,31.57 124.91,47.26 27.85,10.98 103.72,35.01 124.27,47.32 -9.4,30.41 -44.34,73.03 -30.8,108.02 8.79,22.71 15.87,24.85 34.49,35.92 13.59,8.08 34.52,19.68 47.38,25.01 -21.7,96.43 83.86,121.28 120.13,59.37 21.01,-35.86 1.05,-73.2 -22.26,-88.86 -13.84,-9.29 -32,-11.6 -50.83,-8.2 -20.22,3.65 -27.72,12.7 -38.59,24.31 -6.72,-3.61 -13.17,-6.49 -20.1,-10.08 -47.63,-24.69 -73.5,-36.02 -44.88,-93.78 6.61,-13.34 16.07,-32.61 20.7,-45.64 13.82,3.56 28.08,9.61 41.13,14.69 14,5.45 27.11,10.25 41.42,15.84 30.27,11.81 142.45,49.55 160.62,63.88 48.23,38.01 -53.99,113.8 -15.43,167.19 20.15,27.9 88.42,42.32 95.37,74.13 4.75,21.79 -4.14,31.48 -12.2,43.7 -14.95,22.68 -31.76,46.53 -44.19,70.25 -19.46,-4.15 -32.94,-8.54 -54.11,-1.32 -54.76,18.68 -52.38,90.84 -13.28,116.91 50.32,33.54 109.65,-7.93 103.12,-62.96 -2.2,-18.58 -12.64,-33.89 -22.83,-41.15 4.45,-12.74 7.7,-14.68 14.55,-25.79 5.15,-8.34 9.95,-16.03 15.26,-24.43 8.13,-12.84 26.95,-36.44 29.63,-51.79 4.64,-26.52 -5.74,-48.38 -22.45,-58.69 -14.89,-9.19 -35.36,-21.76 -51.69,-29.67 -52.6,-25.5 -22.96,-66.5 -3.54,-108.23 21.13,-45.38 12.12,-81.85 -41.8,-97.05 2.17,-16.29 9.33,-32.74 13.79,-47.51 7.92,-26.23 12.43,-69.11 40.85,-80.14 20.12,-7.81 36.54,4.58 54.98,4.48l18.11 6.22c7.56,1.98 13.38,3.32 20.97,3.06 -0.32,5.19 -1.18,10.56 0.21,15.66 1.2,4.43 0.54,1.97 2.36,4.36 -1.2,11.14 5.02,20.45 9.69,27.43 5.85,8.75 11.97,12.9 21.01,18.25 13.05,7.73 52.19,13.23 63.14,0.21 4.94,-2.53 6.49,-2.7 10.94,-6.24 4.37,-3.47 6.38,-5.19 9.19,-8.89 27.79,-36.34 16.88,-78.12 -15.32,-99.07 -35.18,-22.89 -85.02,-3.76 -94.97,28.61 -0.41,-0.29 -1.66,0.37 -4.5,3.26l-20.24 -3.12c-86.25,-20.75 -106.78,-19.49 -128.67,69.19 -3.44,13.93 -11.96,47.93 -18.37,57.1l-115.66 -43.43c-72.19,-29 -160.62,-58.11 -229.89,-86.9 -19.02,-7.91 -37.59,-14.36 -57.75,-21.68 -12.64,-4.58 -49.48,-17.64 -57.87,-23.28 10.19,-21.36 25.42,-82.24 28.62,-110.2l53.14 8.03c60.1,2.9 133.25,40.21 157.79,-21.8 9.57,-24.2 -4.67,-57.34 35.79,-69.73 10.65,-3.26 93.78,-2.43 101.84,0.95 0.72,1.54 1,0.65 1.28,4.15 0.06,0.8 -0.32,6.34 -0.39,7l-5.15 41.31c-2.17,16.32 -6.68,40.54 -6.89,57.12l-4.67 42.66c-21.26,7.07 -18.03,-4.47 -46.73,18.04 -10.55,8.28 -20.43,22.58 -22.23,41.16 -8.44,87.2 114.71,100.2 130.12,24.79 8.09,-39.58 -14.01,-72.86 -45,-80.08l17.87 -157c23.67,0.46 48.12,1.02 72.36,1.1 28.83,0.1 41.78,1.16 59.28,-15.87 40.43,-39.36 0.63,-84.61 19.41,-123.75 8.8,-18.34 21.53,-22.77 47.02,-25.22 21.68,-2.09 47.58,-9.45 66.6,-1.31 7.83,3.35 14.13,8.9 18.61,16.44 8.57,14.39 9.04,83.1 9.94,104.2 -76.94,10.07 -74.15,134.05 12.51,131.47 85.29,-2.54 83.21,-125.81 3.85,-131.96 -2.31,-35.42 -0.71,-93.77 -14.7,-115.19 -21.6,-33.1 -57.33,-23.49 -102.76,-19.07 -121.31,11.8 -6.72,153.14 -95.75,164.13l-129.66 -1.8c-33.24,-0.56 -84.65,-6.65 -106,8.44 -46.64,32.98 -10.45,77.93 -54.16,95.34 -18.29,7.29 -93.8,-7.71 -116.93,-12.15l-51.64 -7.39c-1.88,-8.08 4.23,-61.5 4.34,-77.66 0.19,-29.95 -2.37,-53.5 -4.11,-82.17l90.66 -11.42c7.94,12.23 16.86,43.17 51.32,46.78 3.05,4.24 16.71,4.92 24.05,1.11 51.09,-6.23 75.82,-71.08 36.49,-112.27 -14.5,-15.19 -41.37,-25.23 -69.42,-15.42 -21.6,7.56 -38.95,26.24 -42.43,52.45 -2.84,5.03 -1.12,3.74 -2.19,6.48 -2.16,5.52 -0.32,3.47 -4.77,6.62l-86.06 10.1c-4.59,-30.36 -8.85,-52.69 -16.88,-80.66 -4.09,-14.27 -6.26,-23.88 -11.2,-37.24 -3.41,-9.23 -10.93,-27.85 -12.54,-36.16 18.29,-9.06 73.49,-34.87 92.06,-33.21 41.57,3.72 22.66,39.18 63.86,64.82 25.69,15.99 64.73,-0.17 101.27,-10.92l74.12 -20.43c6.37,-1.74 20.17,-6.21 25.64,-3.87l17.14 84.04c-10.83,2.68 -13.52,4.05 -20.96,9.92 -19.43,15.34 -30.93,42.26 -23.96,69.45 7.2,28.11 38.88,55.88 76.12,48.67 78.29,-15.17 72.8,-130.51 -14.85,-131.83 -7.64,-19.59 -13.58,-76.86 -26.21,-112.52l-35.98 -104.09c6.42,-4.88 15.17,-8.28 23.3,-11.09 39.43,-13.64 140.84,-64.11 173.6,-74 9.1,16.41 13.49,44.68 22.83,60.89 2.51,10.13 -0.35,8.23 4.97,12.65 1.56,24.72 18.91,63.44 52.13,70.8 18.81,4.17 82.09,-14.05 100.1,-20.68 13.74,16.04 9.87,19.07 29.61,31.69 42.68,27.29 115.37,-11.96 96.14,-76.3 -15.41,-51.58 -81.49,-66.03 -116.94,-21.22 -11.52,14.56 -11.43,28.57 -13.46,50.43 -48.26,12.3 -85.44,35.14 -112.03,8.51 -14.24,-14.26 -9.39,-22.79 -16.66,-32.26l-10.16 -28.47c-7.9,-46.64 -44.01,-104.64 -57.51,-136.66 -3.83,-9.08 -10.24,-17.25 -13.94,-25.56 -7.69,-17.29 -20.78,-37.6 -26.3,-53.3 9.44,-3.94 25.31,-14.3 34.32,-20.44 39.25,-26.78 87.78,-36.81 77.93,-93.62 -2.33,-13.43 -14.35,-27.19 -20.87,-36.46l-23.62 -33.58c-13.84,-18.98 -27.59,-48.92 -69.08,-43.49 -22.1,2.89 -44.24,27.25 -67.72,44.39 -10.62,7.75 -19.32,16.91 -31.28,25.9 -26.7,20.07 -46.83,46.16 -72.75,40.15 -36.04,-8.35 -50.79,-68.29 -99.37,-72.29 -2.44,-1.31 4.76,-2.16 -5,-1.6 -8.08,0.47 -4.54,1 -6.26,2.49 -20.71,-0.15 -43.3,20.36 -54.09,35.83 -9.46,13.55 -34.93,34.35 -42.14,48.1l-74.84 -58.73c-19.17,-29.28 1.93,-49.96 10.22,-62.94l71.94 -104.21c5.78,-8.88 40.52,-59.91 46.01,-63.98 38.34,-28.4 60.9,10.11 98.16,35.56 9.45,6.46 15.18,12.65 23.16,19.84 -11.39,14.34 -14.15,62.03 4.66,73.82 0.24,1.1 1.01,1.91 2,2.47 0.3,0.63 0.5,0.92 1.06,1.39 0.43,3.1 -0.1,1.28 3.07,5.02 5.08,5.97 17.38,11.82 24.95,14.51 39.09,13.86 84.41,-13.57 87.45,-59.71 4.28,-64.9 -77.94,-88.42 -112.85,-51.46 -9.88,-6.42 -15.88,-11.93 -25.54,-20.46l-53.92 -40.8c-24.96,-12.17 -50.11,-6.33 -68.57,14.39l-20.52 27.98c-7.4,10.66 -11.66,17.46 -20.03,28.39l-38.47 56.07c-13.82,17.18 -51.37,70.33 -55.2,87.91 -3.15,14.47 0.95,28.63 6.31,39.05 6.23,12.11 14.45,16.5 24.01,24.4 4.34,3.59 9.1,6.99 13.53,10.66l38.92 33.28c-3.91,7.31 -28.89,32.55 -37.9,43.15 -10.26,12.07 -30.66,27.12 -35.89,45.59 -7.26,25.61 2.94,47.5 15.14,60.57 8.64,9.26 35.31,33.64 39.58,42.88 -5.9,3.89 -9.53,6.8 -14.85,11.16l-90.96 74.16c-6.08,6.13 -11.79,6.77 -13.37,12.76l-30.81 22.97c-1.77,-1.53 -3.4,-2.83 -4.94,-4.59l-14.98 -16.4c-4.53,-7.22 -11.8,-14.54 -18.23,-20.25l-40.97 -36.54c-2.1,-1.58 -4.24,-3.01 -6.38,-4.53 -1.46,-4.29 0.52,-1.25 -5.34,-5.61 -3.83,-2.86 -5.1,-3.76 -8.92,-6.75 -5.91,-4.63 -10.82,-8.38 -16.38,-11.59 3.3,-12.24 14.45,-20.88 19.71,-31.48 1.01,-1.24 3.37,-4.03 4.5,-5.58 15.57,-21.38 58.12,-89.73 69.92,-98.53 79.41,35.99 129.68,-68.78 70.91,-111.49 -14.66,-10.65 -24.9,-15.78 -49,-13.59 -34.51,3.14 -61.3,35.25 -57.75,71.39 2.47,25.1 11.82,29.38 19.84,43.92l-80.16 117.37c-4.49,6.43 -7.88,8.33 -10.61,17.1 -9.48,-2.87 -32.49,-18.94 -42.22,-25.05 -32.87,-20.62 -106.67,-50.7 -143.28,-59.18 1.92,-13.13 18.83,-75.73 24.01,-85.18 20.1,-36.64 61.58,-12.01 76.8,-6.94 44.91,14.95 74.72,33.97 106.01,-28.16 5.86,-11.64 14.81,-26.12 18.91,-38.44 11.17,-33.57 -10.76,-61.74 -33.03,-71.49 -63.77,-27.91 -56.3,-36.07 -34.52,-99.38l42.37 -124.93c45.33,7.66 118.47,75.16 160.7,24.2 5.63,-6.79 71.02,-131.16 75.69,-148.66 23.67,4.71 32.82,6.41 53.87,-3.47 65.71,-30.84 36.54,-147.04 -51.65,-122.07 -47.06,13.32 -64.69,81.49 -16.43,116.72 -2.93,10.9 -11.39,27.58 -16.5,37.49 -8.98,17.43 -50.64,100.73 -56.92,108.01 -22.83,26.49 -49.2,11.78 -78.41,-0.43 -13.36,-5.58 -24.81,-10.35 -38.47,-16.51 -48.91,-22.09 -73.05,-23.92 -124.26,-38.42 -18.98,-5.38 -25.07,-3.75 -38.01,-17.17 -10.83,-11.23 -13.61,-23.1 -9.4,-42.29 3.38,-15.44 6.19,-31.39 9.21,-45.8 13.03,-62.1 64.7,-32.65 109.64,-22.96l22.8 4.56c0.78,0.91 -0.26,1.97 3.66,3.53 0.05,18.38 2.94,37.19 10.5,44.36 27.07,52.51 127.97,37.23 121.52,-42.18 -1.66,-20.37 -7.44,-26.04 -17.1,-37.68 -3.91,-4.7 -4.19,-6.03 -10.63,-8.88l-15.56 -9.2c-7.29,-2.2 -10.32,-2.89 -17.23,-1.39 -7.5,-4.02 -9.93,-2.13 -16.85,-0.95 -1.88,0.32 -5.74,0.8 -7.36,1.31 -8.91,2.85 -4.57,1.93 -7.17,4.65 -11.17,0.66 -24.55,14.45 -28.69,22.83 -7,7.14 0.01,5.09 -10.37,12.54 -2.91,-4.22 2.66,0.02 -3.15,-3.04 -1.32,-0.7 -3.27,-1.22 -4.67,-1.67 -4.18,-1.33 -7.87,-2.28 -11.04,-3.33 -32.33,-5.65 -70.11,-26.54 -101.98,-11.98 -32.47,14.83 -34.05,51.5 -39.97,85.41 -3.98,22.79 -7.7,50.45 17.79,69.22 6.67,4.92 12.67,8.98 21.83,11.2 17.21,4.18 31.76,8.18 48.66,13.04 17.04,4.9 34.86,6.39 49.96,13.92l-27.29 82.95c-5.35,14.74 -9.37,26.35 -13.91,40.93 -4.25,13.64 -11.02,27.41 -14.13,41.15 -8.06,35.57 11.67,60.55 35.4,70.46 17.94,7.5 58.52,19.91 46.07,59.31 -5.5,17.4 -27.13,59.7 -42.68,67.36 -22.68,11.18 -54.04,-7.58 -84.8,-18.85 -22.62,-8.28 -56.3,-3.67 -68.77,17.18 -18.1,30.26 -8.7,19.4 -18.52,51.94 -4.19,13.87 -8.75,28.78 -11.9,42.69 -17.71,-2.99 -35.75,-7.52 -54.39,-11.09 -19.87,-3.81 -39.22,-3.75 -59.64,-6.2l10.05 -236.03c4.19,-7.14 3.84,-26.42 3.18,-36.32l3.14 -67.69c12.03,-1.33 78.74,6.03 85.86,10.7 2.58,3.3 0.48,-1.42 2.12,4.23l4.03 16.44c6.57,18.76 18.23,31.74 39.17,39.99 31.14,12.28 56.67,-0.03 76.27,-22.04 39.02,-43.84 -6.57,-127.13 -78.31,-100.93l-5.81 2.54c-8.48,2.77 1.52,-1.47 -4.05,1.56 -1.18,0.63 -2.04,1.22 -3.12,1.98l-11.76 10.98c-0.4,0.41 -1.01,0.47 -1.18,1.23 -0.73,3.27 -0.64,0.62 -2.21,2.5 -0.5,0.6 -2.43,3.19 -3.9,4.87l-7.35 19.35c-18.9,0.03 -65.57,-7.31 -86.04,-10.31 -26.21,-3.84 -62.98,0.04 -90.84,0.73 -32.81,0.8 -50.72,-10.01 -53.68,-41.91 -2.44,-26.3 -11.45,-63.95 6.08,-80.72 32.72,-31.3 101.56,5.1 130.09,-35.12 22.65,-31.94 13.39,-47.19 17.44,-101.05 1.55,-20.59 1.14,-74.19 5.19,-88.97l12.31 -4.02c72.03,-18.92 60.78,-124.11 -9.78,-129.83 -90.64,-7.35 -97.34,120.35 -19.44,130.88l-7.37 161.08c-7.89,68.7 -112.44,6.85 -146.38,64.59 -16.22,27.58 -5.46,90.53 0.85,105.97 20.32,49.74 79.24,32.05 135.48,33.26l-1.99 58.77c-3.95,7.07 -3.98,26.21 -3.17,36.08l-2.42 83.73c-0.3,0.44 -0.82,0.53 -0.88,1.34 -0.06,0.87 -0.56,1.19 -0.63,1.6 -0.78,4.41 -0.39,0.11 -0.3,4.15l-6.81 155.64c-41.54,0.73 -75.4,1.64 -116.11,5.85 -3,-28.7 -8.21,-60.05 -13.61,-88.12 -8.9,-46.22 -3.97,-90.45 -49.58,-104.52 -42.83,-13.21 -78.2,38.18 -100.97,-44.42l-97.49 -312.92c-7.63,-22.71 -8.28,-48.65 15.85,-61.58 11.04,-5.91 15.31,-1.25 23.51,-8.2l16.08 -3.31c8.26,-1.12 21.58,-2.83 26.94,-8.03 12.15,0.71 19.21,-3.6 31.71,-5.58 6.59,27.9 44.24,49.98 81.18,39.44 34.71,-9.9 53.67,-47.3 44.92,-79.78 -19.29,-71.57 -130.53,-68.89 -131,24.67l-28.82 6.83c-4.77,1.31 -8.27,1.24 -14.75,3.69 -45.45,12.42 -74.86,12.01 -86.71,57.89 -0.84,16.28 2.6,29.6 7.02,43.52l69.25 222.19c-2.98,2.42 -81.77,37.88 -101.16,33.12 -22.17,-5.45 -27.46,-20.74 -33.69,-34.55 -6.76,-14.98 -17.91,-33.56 -22.69,-48.47 14.49,-16.2 46.59,-39.93 24.16,-87.15 -12.1,-25.48 -48.24,-47.28 -86.39,-30.85 -31.84,13.71 -48.29,50.63 -35.19,84.01 12.8,32.6 38.04,46.09 82.53,40.74 7.67,17.33 15.3,33.38 24.01,50.97 24.8,50.03 51.23,48.85 99.29,30.18 17.16,-6.67 36.19,-14.96 54.39,-21.01l29.38 93.84c6.44,14.26 15.83,24.25 31.09,30.52 23.02,9.46 37.74,-0.49 57.05,-2.28 42.91,-3.98 46.41,38.36 50.95,74.81 3.91,31.36 16.75,77.09 16.5,107.46 -35.69,7.66 -81.2,18.52 -115.07,32.4 -11.23,4.6 -25.39,11.24 -36.26,14.43 -3.43,-10.44 -13.01,-28.66 -18.79,-40.25 -5.26,-10.55 -16.93,-33.09 -19.18,-44.14 23.57,-10.76 42.73,-51.46 24.11,-86.28 -39,-72.98 -148.68,-22.86 -121.99,51.54 12.33,34.35 48.53,53.97 81,43.08 5.06,5.22 36.53,72.03 39.92,82.79l-14.77 8.66c-21.69,10.28 -31.83,17.67 -52.28,30.64l-1.46 1.52c-4.28,2.1 -9.69,4.32 -12.94,7.9 -3.45,3.8 -1.87,2.51 -3.33,5.44 -10.15,2.13 -22.98,13.1 -30.59,20.62l0.56 0.13c-9.72,5.84 -10.25,6.83 -17.56,12.56 -2.63,-4.06 -0.72,-1.03 -4.79,-3.77l-54.3 -64.25c-5.12,-5.21 -4.37,-3.64 -8.49,-9.08 -21.77,-28.79 -58.5,-50.62 -33.18,-86.92 8.07,-11.57 27.73,-18.36 35.13,-32.98 19.17,-37.85 4.95,-59.78 -22.65,-97.02 -32.3,-43.58 -52.36,-111.61 -111.9,-90.42 -8.61,3.06 -15.04,7.01 -20.75,12.26l-96.02 77.86c-33.95,18.52 -59.98,-17.4 -86.58,-43.24 -8.35,-8.11 -28.7,-26.06 -34.36,-36.02l146.42 -119.81c59.27,-42.18 9.77,-96.3 -26.12,-150.17 -4.08,-6.12 -10.96,-14.62 -13.16,-22.75 8.66,-7.38 20.65,-12.2 31.04,-17.96 10.88,-6.03 20.66,-12.3 31.01,-17.42l61.16 -33.98c8.34,7.38 13.3,14.03 25.39,20.46 38.53,20.48 88.15,-11.2 88.8,-35.07 10.01,-11.47 9.94,-39.13 0.27,-50.31 -16.76,-65.23 -148.05,-54.19 -121.58,51.56l-133.56 73.44 -118.38 90.07c-15.32,-8.92 -25.8,-23.35 -57.3,-19.52 -23.63,2.88 -39.09,16.84 -48.62,30.87 -26.3,38.72 3.54,94.56 41.2,98 1.45,4.59 8.89,4.21 14.06,4.25 7.55,0.06 10.49,0.06 15.31,-3.17 32.18,-3.93 53.06,-33.84 52.6,-65.79 -0.19,-12.85 -7.39,-25.03 -7.27,-31.87l110.14 -83.4 43.81 63.59c27.47,42.83 41.33,58.61 -16.39,100.25 -5.23,3.78 -9.58,8.56 -14.1,12.21l-46.38 37.39c-5.78,4.16 -8,7.29 -13.97,12.32 -26.67,22.46 -49.58,36.79 -73.21,63.3 -18,20.19 -32.46,38.91 -50.96,59.03 -18.6,20.23 -40.09,59.32 -85.68,20.62l-49.14 -34.34c1.26,-16.47 23.91,-58.53 -23.39,-91.27 -19.17,-13.27 -51.19,-15.24 -72.2,0.08 -59.53,43.4 -24.8,125.43 41.68,121.47 24.85,-1.48 30.12,-12.12 44.34,-20.45 8.11,9.09 16.73,12.35 25.94,19.87 10.2,8.32 17.35,12.65 26.34,19.91 34.03,27.47 66.29,21.6 93.75,-14.4 6.14,-8.05 16.43,-16.17 22.24,-23.88l43.82 -50.94 65.93 65.97c47.98,47.54 82.31,9.13 112.84,-14.83l17.64 -15.22c12.94,-9.82 26.14,-18.51 38.38,-29.88 10.55,-9.81 27.21,-22.65 49.55,-13.39 18.32,7.6 31.16,32.58 45.68,55.77l26.45 39.5c14.25,21.88 33.25,46.66 10.74,72.4 -5.21,5.96 -10.69,8.13 -18.24,14.78 -22.76,20.02 -31.85,46.96 -17.25,74.11 5.97,11.1 66.97,74.97 78.6,90.75 4.15,5.63 9.35,15.17 16.13,17.64l8.65 10.65c2.9,5.75 -0.2,-2.79 1.75,5.75l-9.75 10.61 0.52 -1.78zm-73.68 880.67c3.86,0 3.02,0.8 1.64,-2.97 5.04,-1.81 1.9,0.95 7.19,-3.93 7.1,-6.53 2.35,-1.8 4.52,-6.79 3.83,1.03 2.99,1.88 2.99,-1.94 2.73,-0.95 4.07,-1.32 7.28,-2.8 10.39,12.4 23.02,27.01 34.19,37.75 7.64,7.35 30,30.37 37.79,34.12 4.92,7.05 1.75,4.33 9.06,7.91 9.51,9.08 26.09,19.59 34.42,28.08l-102 147.41c-17.3,22.62 -43.53,65.26 -62.23,89.69 -18.28,23.88 -37.92,32.57 -67.11,10.22l-108.96 -93.6 -45.35 -54.38c7.64,-11.69 17.8,-19.03 18.94,-42.64 2.7,-55.54 -52.53,-92.45 -106.24,-57.89 -37.63,24.22 -35.45,99.39 21.24,116.69 23.25,7.1 33.31,1.42 52.12,-5.38 6.41,3.63 6.56,4.58 10.8,10.58l30.08 36.87 -72.91 67.43c-36.55,24.7 -62.72,-17.01 -83.45,-44 -30.12,-39.22 -31.7,-32.09 -60.05,-82.97 -4.86,-8.72 -8.43,-13.21 -13.48,-21.78 -10.15,-17.2 -35.86,-56.46 -39.99,-68.41l56.92 -28.54c37.8,-20.89 80.42,-34.24 50.71,-102.62 -4.44,-10.23 -9.06,-19.65 -13.41,-30.72 -3.91,-9.99 -10.77,-22.32 -13.19,-32.02 16.31,-4.87 31.99,-10.77 47.88,-15.67 31.99,-9.88 65.02,-17.46 75.51,-52.31 7.43,-24.67 -3.21,-32.79 -5.37,-53.05 -2.12,-20 9.48,-36.27 20.7,-41.58 11.96,-5.67 145.88,-31.24 159.75,-33.26l14.58 55.04c0.25,7.45 -0.79,3.93 2.41,7.21 8.35,34.89 30.99,73.94 34.52,88.02 -10.2,4.12 -23.45,12.22 -34.56,17.8l-108.02 55.25c-2.69,-1.91 -0.95,-0.5 -3.59,-3.32 -9.49,-10.18 -17.61,-17.92 -34.23,-22.96 -75.77,-22.97 -122.53,87.86 -45.76,124.98 28.79,13.92 70.79,1.84 86.95,-31.81 9.75,-20.3 6.65,-30.53 3.64,-51.83 19.57,-7.58 129.24,-70.18 145.29,-73.11 3.42,13.53 37.06,64.94 44.96,73.37 4.64,8.9 10.58,15.14 15.96,21.76 -1.35,1.77 -0.8,1.27 -3.08,3.26 -1.6,1.4 -3.42,2.54 -4.9,3.78 -3.96,3.31 -1.55,0.93 -4.5,4.35l-3.82 5.18c-3.69,-1.34 -2.81,-2.03 -2.77,1.86 -3.69,-0.96 -3.04,-1.96 -3.04,1.46l-63.64 50.38c-24.42,20.25 -47.78,35.99 -50.59,64.06 -3.11,31.03 18.11,44.63 23.21,52.75 -8.72,17.64 -16.42,23.54 -13.61,50.44 1.93,18.52 12.68,32.5 22.37,41.07 11.04,9.78 27.17,17.3 47.48,16.43 55.91,-2.39 80.95,-69.55 46.21,-110.18 -35.59,-41.62 -84.75,-11.82 -93.58,-9.93 -13.55,-17.79 -28.92,-43.13 0.21,-68.05l73.83 -60.36c5.8,-4.64 12.81,-9.12 18.12,-14.4zm1729.21 -159.95c-0.23,0.46 -0.99,0.4 -1.16,1.01 -0.81,3.02 0.03,2.37 0.72,1.16l0.44 -2.17zm-470.79 -1061.33l6.6 -1.04c23.34,-2.71 30.24,4.44 41.74,14.66 27.69,24.64 53.75,75.89 102.98,52.78 13.69,-6.42 102.75,-82.38 122.73,-97.45 38.08,-28.72 60.5,11.54 70.01,24.06 54.67,72.01 69.48,88.45 0.13,129.68l-68.56 41.38c-5.47,8.96 27.32,65.66 33.68,77.18 4.24,7.67 5.87,11.81 9.51,19.2 7.18,14.58 24.69,43.02 28.08,54.9 -9.97,7.33 -35.93,15.65 -49.86,22.15l-98.5 42.34c-14.95,5.85 -34.3,16.93 -48.76,20.72l-76.87 -138.12c23.15,-13.82 34.11,-57 14.5,-87.56 -8.28,-12.91 -19.57,-23.64 -35.83,-27.93 -18.41,-4.86 -39.64,-2.45 -53.39,6.2 -28.15,17.71 -42.34,56.68 -25.36,87.79 13.42,24.59 46.8,47.7 85.79,30.94 2.43,4.87 5.86,9.29 9.02,15.24l26.18 46.41c27.14,45.04 47.18,81.89 62.36,131.25 6.99,22.74 18.64,47.37 24.28,70.45 -31.54,6.68 -69.12,18.14 -100.89,27.29 -48.73,14.03 -73.78,26.99 -97.26,3.58 -13.5,-13.47 -11.36,-27.11 -23.48,-40.31 -32.19,-35.05 -68,-12.45 -92.47,-2.66 -15.63,6.25 -29.65,13.48 -44.29,18.23 -7.41,-10.65 -12.61,-24.62 -18.5,-36.4 -21.4,-42.86 -54.91,-83.3 -63.77,-100.39 43.27,-32.28 92.84,-77.62 130.87,-106.02 15.45,-11.54 7.7,-10.7 20.36,-14.69 10.7,18.15 26.22,36.71 37.1,54.55 -20.71,20.19 -34.08,57.34 -10.33,89.74 23.2,31.64 65.12,35.65 89.2,17.79 30.72,-22.79 40.63,-53.36 21.92,-89.3 -7.91,-15.21 -16.5,-21.74 -34.75,-29.04 -24.92,-9.96 -32.88,-1.4 -54.31,1.82 -3.49,-10.83 -22.1,-33.49 -29.9,-45.35 -3.14,-4.76 -5.34,-6.72 -8.67,-11.1 -3.32,-4.36 -3.56,-6.38 -6.89,-10.75 -6.17,-8.1 -45.48,-42.77 -53.37,-58.84 -15.11,-30.78 13.86,-49.47 23.89,-62.48 21.4,-27.73 75.74,-79.71 98.58,-106.01 11.41,-13.14 19.2,-26.79 36.49,-34.88z"/>
  </g>
 </g>
</svg>
